# Blender 4.3.2
# www.blender.org
mtllib king.mtl
o King
v -0.530791 1.197019 -0.919357
v 0.530791 1.197019 -0.919357
v -1.061582 1.197019 -0.000000
v -0.530791 1.197019 0.919357
v 0.530791 1.197019 0.919357
v 1.061582 1.197019 0.000000
v -0.721249 0.501600 -1.249240
v 0.721249 0.501600 -1.249240
v -1.442498 0.501600 -0.000000
v -0.721249 0.501600 1.249240
v 0.721249 0.501600 1.249240
v 1.442498 0.501600 0.000000
v 0.721249 -0.007107 -1.249240
v -0.721249 -0.007107 -1.249240
v -1.442498 -0.007107 -0.000000
v -0.721249 -0.007107 1.249240
v 0.721249 -0.007107 1.249240
v 1.442498 -0.007107 0.000000
v -0.255432 3.798557 -0.442421
v 0.255432 3.798557 -0.442421
v -0.510864 3.798557 -0.000000
v -0.255432 3.798557 0.442421
v 0.255432 3.798557 0.442421
v 0.510864 3.798557 0.000000
v -0.605849 3.926980 -1.049362
v 0.605849 3.926980 -1.049362
v -1.211698 3.926980 -0.000000
v -0.605849 3.926980 1.049361
v 0.605849 3.926980 1.049362
v 1.211698 3.926980 0.000000
v -0.327159 4.126980 -0.566655
v 0.327159 4.126980 -0.566655
v -0.654317 4.126980 -0.000000
v -0.327159 4.126980 0.566655
v 0.327158 4.126980 0.566655
v 0.654317 4.126980 0.000000
v -0.471845 4.714714 -0.817260
v 0.471845 4.714714 -0.817260
v -0.943690 4.714714 -0.000000
v -0.471845 4.714714 0.817260
v 0.471845 4.714714 0.817260
v 0.943690 4.714714 0.000000
v -0.539886 5.182793 -0.935110
v 0.539886 5.182793 -0.935110
v -1.079772 5.182793 -0.000000
v -0.539886 5.182793 0.935110
v 0.539886 5.182793 0.935110
v 1.079772 5.182793 0.000000
v 0.314108 5.302534 -0.544050
v -0.314108 5.302534 -0.544050
v -0.628215 5.302534 -0.000000
v -0.314108 5.302534 0.544050
v 0.314107 5.302534 0.544050
v 0.628215 5.302534 0.000000
v 0.175852 5.563787 -0.182751
v -0.175852 5.563787 -0.182751
v -0.351704 5.563787 -0.000000
v -0.175852 5.563787 0.182751
v 0.175852 5.563787 0.182751
v 0.351704 5.563787 0.000000
v 0.175852 5.884467 -0.182751
v -0.175852 5.884467 -0.182751
v -0.175852 5.884467 0.182751
v 0.175852 5.884467 0.182751
v 0.175852 6.184467 -0.182751
v -0.175852 6.184467 -0.182751
v -0.175852 6.184467 0.182751
v 0.175852 6.184467 0.182751
v 0.175852 6.585639 -0.182751
v -0.175852 6.585639 -0.182751
v -0.175852 6.585639 0.182751
v 0.175852 6.585639 0.182751
v 0.175852 6.184467 0.542211
v -0.175852 6.184467 0.542211
v 0.175852 5.884467 0.542211
v -0.175852 5.884467 0.542211
v -0.175852 6.184467 -0.542211
v 0.175852 6.184467 -0.542211
v -0.175852 5.884467 -0.542211
v 0.175852 5.884467 -0.542211
v 0.530791 1.197019 -0.919357
v 0.721249 0.501600 -1.249240
v 0.721249 0.501600 -1.249240
v 0.721249 0.501600 -1.249240
v -0.721249 0.501600 -1.249240
v -0.721249 0.501600 -1.249240
v -0.721249 0.501600 -1.249240
v -0.530791 1.197019 -0.919357
v -1.442498 0.501600 -0.000000
v -1.442498 0.501600 -0.000000
v -1.442498 0.501600 -0.000000
v -1.061582 1.197019 -0.000000
v -0.721249 0.501600 1.249240
v -0.721249 0.501600 1.249240
v -0.721249 0.501600 1.249240
v -0.530791 1.197019 0.919357
v 0.721249 0.501600 1.249240
v 0.721249 0.501600 1.249240
v 0.721249 0.501600 1.249240
v 0.530791 1.197019 0.919357
v 1.442498 0.501600 0.000000
v 1.442498 0.501600 0.000000
v 1.442498 0.501600 0.000000
v 1.061582 1.197019 0.000000
v 0.721249 -0.007107 -1.249240
v 0.721249 -0.007107 -1.249240
v -0.721249 -0.007107 -1.249240
v -0.721249 -0.007107 -1.249240
v -1.442498 -0.007107 -0.000000
v -1.442498 -0.007107 -0.000000
v -1.442498 -0.007107 -0.000000
v -0.721249 -0.007107 1.249240
v -0.721249 -0.007107 1.249240
v 0.721249 -0.007107 1.249240
v 0.721249 -0.007107 1.249240
v 1.442498 -0.007107 0.000000
v 1.442498 -0.007107 0.000000
v 1.442498 -0.007107 0.000000
v -0.255432 3.798557 -0.442421
v -0.255432 3.798557 -0.442421
v -0.255432 3.798557 -0.442421
v 0.255432 3.798557 -0.442421
v 0.255432 3.798557 -0.442421
v 0.255432 3.798557 -0.442421
v -0.510864 3.798557 -0.000000
v -0.510864 3.798557 -0.000000
v -0.510864 3.798557 -0.000000
v -0.255432 3.798557 0.442421
v -0.255432 3.798557 0.442421
v -0.255432 3.798557 0.442421
v 0.255432 3.798557 0.442421
v 0.255432 3.798557 0.442421
v 0.255432 3.798557 0.442421
v 0.510864 3.798557 0.000000
v 0.510864 3.798557 0.000000
v 0.510864 3.798557 0.000000
v -0.605849 3.926980 -1.049362
v -0.605849 3.926980 -1.049362
v -0.605849 3.926980 -1.049362
v 0.605849 3.926980 -1.049362
v 0.605849 3.926980 -1.049362
v 0.605849 3.926980 -1.049362
v -1.211698 3.926980 -0.000000
v -1.211698 3.926980 -0.000000
v -1.211698 3.926980 -0.000000
v -0.605849 3.926980 1.049361
v -0.605849 3.926980 1.049361
v -0.605849 3.926980 1.049361
v 0.605849 3.926980 1.049362
v 0.605849 3.926980 1.049362
v 0.605849 3.926980 1.049362
v 1.211698 3.926980 0.000000
v 1.211698 3.926980 0.000000
v 1.211698 3.926980 0.000000
v -0.327159 4.126980 -0.566655
v -0.327159 4.126980 -0.566655
v -0.327159 4.126980 -0.566655
v 0.327159 4.126980 -0.566655
v 0.327159 4.126980 -0.566655
v 0.327159 4.126980 -0.566655
v -0.654317 4.126980 -0.000000
v -0.654317 4.126980 -0.000000
v -0.654317 4.126980 -0.000000
v -0.327159 4.126980 0.566655
v -0.327159 4.126980 0.566655
v -0.327159 4.126980 0.566655
v 0.327158 4.126980 0.566655
v 0.327158 4.126980 0.566655
v 0.327158 4.126980 0.566655
v 0.654317 4.126980 0.000000
v 0.654317 4.126980 0.000000
v 0.654317 4.126980 0.000000
v -0.471845 4.714714 -0.817260
v 0.471845 4.714714 -0.817260
v -0.943690 4.714714 -0.000000
v -0.471845 4.714714 0.817260
v 0.471845 4.714714 0.817260
v 0.943690 4.714714 0.000000
v -0.539886 5.182793 -0.935110
v -0.539886 5.182793 -0.935110
v -0.539886 5.182793 -0.935110
v 0.539886 5.182793 -0.935110
v 0.539886 5.182793 -0.935110
v 0.539886 5.182793 -0.935110
v -1.079772 5.182793 -0.000000
v -1.079772 5.182793 -0.000000
v -1.079772 5.182793 -0.000000
v -0.539886 5.182793 0.935110
v -0.539886 5.182793 0.935110
v -0.539886 5.182793 0.935110
v 0.539886 5.182793 0.935110
v 0.539886 5.182793 0.935110
v 0.539886 5.182793 0.935110
v 1.079772 5.182793 0.000000
v 1.079772 5.182793 0.000000
v 1.079772 5.182793 0.000000
v -0.314108 5.302534 -0.544050
v 0.314108 5.302534 -0.544050
v -0.628215 5.302534 -0.000000
v -0.314108 5.302534 0.544050
v 0.314107 5.302534 0.544050
v 0.628215 5.302534 0.000000
v -0.175852 5.563787 -0.182751
v -0.175852 5.563787 -0.182751
v -0.175852 5.563787 -0.182751
v -0.175852 5.563787 -0.182751
v 0.175852 5.563787 -0.182751
v 0.175852 5.563787 -0.182751
v 0.175852 5.563787 -0.182751
v 0.175852 5.563787 -0.182751
v -0.351704 5.563787 -0.000000
v -0.351704 5.563787 -0.000000
v -0.175852 5.563787 0.182751
v -0.175852 5.563787 0.182751
v -0.175852 5.563787 0.182751
v -0.175852 5.563787 0.182751
v 0.175852 5.563787 0.182751
v 0.175852 5.563787 0.182751
v 0.175852 5.563787 0.182751
v 0.175852 5.563787 0.182751
v 0.351704 5.563787 0.000000
v 0.351704 5.563787 0.000000
v -0.175852 5.884467 -0.182751
v -0.175852 5.884467 -0.182751
v -0.175852 5.884467 -0.182751
v -0.175852 5.884467 -0.182751
v 0.175852 5.884467 -0.182751
v 0.175852 5.884467 -0.182751
v 0.175852 5.884467 -0.182751
v 0.175852 5.884467 -0.182751
v 0.175852 5.884467 0.182751
v 0.175852 5.884467 0.182751
v 0.175852 5.884467 0.182751
v 0.175852 5.884467 0.182751
v -0.175852 5.884467 0.182751
v -0.175852 5.884467 0.182751
v -0.175852 5.884467 0.182751
v -0.175852 5.884467 0.182751
v -0.175852 6.184467 -0.182751
v -0.175852 6.184467 -0.182751
v -0.175852 6.184467 -0.182751
v -0.175852 6.184467 -0.182751
v 0.175852 6.184467 -0.182751
v 0.175852 6.184467 -0.182751
v 0.175852 6.184467 -0.182751
v 0.175852 6.184467 -0.182751
v 0.175852 6.184467 0.182751
v 0.175852 6.184467 0.182751
v 0.175852 6.184467 0.182751
v 0.175852 6.184467 0.182751
v -0.175852 6.184467 0.182751
v -0.175852 6.184467 0.182751
v -0.175852 6.184467 0.182751
v -0.175852 6.184467 0.182751
v -0.175852 6.585639 -0.182751
v -0.175852 6.585639 -0.182751
v 0.175852 6.585639 -0.182751
v 0.175852 6.585639 -0.182751
v 0.175852 6.585639 0.182751
v 0.175852 6.585639 0.182751
v -0.175852 6.585639 0.182751
v -0.175852 6.585639 0.182751
v -0.175852 5.884467 0.542211
v -0.175852 5.884467 0.542211
v -0.175852 6.184467 0.542211
v -0.175852 6.184467 0.542211
v 0.175852 6.184467 0.542211
v 0.175852 6.184467 0.542211
v 0.175852 5.884467 0.542211
v 0.175852 5.884467 0.542211
v 0.175852 5.884467 -0.542211
v 0.175852 5.884467 -0.542211
v 0.175852 6.184467 -0.542211
v 0.175852 6.184467 -0.542211
v -0.175852 6.184467 -0.542211
v -0.175852 6.184467 -0.542211
v -0.175852 5.884467 -0.542211
v -0.175852 5.884467 -0.542211
vn -0.0000 0.3203 -0.9473
vn -0.0000 0.4286 -0.9035
vn -0.8204 0.3203 -0.4737
vn -0.7825 0.4286 -0.4518
vn -0.8204 0.3203 0.4737
vn -0.7825 0.4286 0.4517
vn -0.0000 0.3203 0.9473
vn -0.0000 0.4286 0.9035
vn 0.8204 0.3203 0.4737
vn 0.7825 0.4286 0.4517
vn 0.8204 0.3203 -0.4737
vn 0.7825 0.4286 -0.4517
vn -0.0000 -0.0000 -1.0000
vn -0.8660 -0.0000 -0.5000
vn -0.8660 -0.0000 0.5000
vn -0.0000 -0.0000 1.0000
vn 0.8660 -0.0000 0.5000
vn 0.8660 -0.0000 -0.5000
vn -0.0000 -1.0000 -0.0000
vn -0.0000 0.1803 -0.9836
vn -0.8518 0.1803 -0.4918
vn -0.8518 0.1803 0.4918
vn -0.0000 0.1803 0.9836
vn 0.8518 0.1803 0.4918
vn 0.8518 0.1803 -0.4918
vn -0.0000 -0.9783 -0.2070
vn -0.1793 -0.9783 -0.1035
vn -0.1793 -0.9783 0.1035
vn -0.0000 -0.9783 0.2070
vn 0.1793 -0.9783 0.1035
vn 0.1793 -0.9783 -0.1035
vn -0.0000 0.9238 -0.3828
vn -0.3315 0.9238 -0.1914
vn -0.3315 0.9238 0.1914
vn -0.0000 0.9238 0.3828
vn 0.3315 0.9238 0.1914
vn 0.3315 0.9238 -0.1914
vn -0.0000 -0.3922 -0.9199
vn -0.0000 -0.3103 -0.9506
vn -0.7966 -0.3922 -0.4599
vn -0.8233 -0.3103 -0.4753
vn -0.7966 -0.3922 0.4599
vn -0.8233 -0.3103 0.4753
vn -0.0000 -0.3922 0.9199
vn -0.0000 -0.3103 0.9506
vn 0.7966 -0.3922 0.4599
vn 0.8233 -0.3103 0.4753
vn 0.7966 -0.3922 -0.4599
vn 0.8233 -0.3103 -0.4753
vn -0.0000 -0.2442 -0.9697
vn -0.8398 -0.2442 -0.4849
vn -0.8398 -0.2442 0.4849
vn -0.0000 -0.2442 0.9697
vn 0.8398 -0.2442 0.4849
vn 0.8398 -0.2442 -0.4849
vn -0.0000 0.9562 -0.2928
vn -0.0000 0.9124 -0.4093
vn -0.2536 0.9562 -0.1464
vn -0.3802 0.8931 -0.2404
vn -0.3679 0.9007 -0.2311
vn -0.2536 0.9562 0.1464
vn -0.3679 0.9007 0.2311
vn -0.3802 0.8931 0.2404
vn -0.0000 0.9562 0.2928
vn -0.0000 0.9124 0.4093
vn 0.2536 0.9562 0.1464
vn 0.3802 0.8931 0.2404
vn 0.3679 0.9007 0.2311
vn 0.2536 0.9562 -0.1464
vn 0.3679 0.9007 -0.2311
vn 0.3802 0.8931 -0.2404
vn -0.0000 0.8103 -0.5860
vn -0.5734 0.7224 -0.3865
vn -0.5734 0.7224 0.3865
vn -0.0000 0.8103 0.5860
vn 0.5734 0.7224 0.3865
vn 0.5734 0.7224 -0.3865
vn -0.0000 1.0000 -0.0000
vn -1.0000 -0.0000 -0.0000
vn 1.0000 -0.0000 -0.0000
vt 0.981314 0.146238
vt 0.820906 0.146238
vt 0.820906 0.069268
vt 0.981314 0.069269
vt 0.179276 0.146238
vt 0.018869 0.146238
vt 0.018869 0.069269
vt 0.179276 0.069269
vt 0.339684 0.146238
vt 0.339684 0.069268
vt 0.500091 0.146238
vt 0.500091 0.069268
vt 0.660499 0.146238
vt 0.660499 0.069268
vt 0.820906 0.012964
vt 0.981314 0.012964
vt 0.018869 0.012964
vt 0.179276 0.012964
vt 0.339684 0.012964
vt 0.500091 0.012964
vt 0.660499 0.012964
vt 0.618379 0.823137
vt 0.966620 0.823137
vt 0.879560 0.973930
vt 0.705440 0.973930
vt 0.879560 0.672344
vt 0.705440 0.672344
vt 0.981313 0.414351
vt 0.820906 0.414351
vt 0.179276 0.414351
vt 0.018869 0.414351
vt 0.339684 0.414351
vt 0.500091 0.414351
vt 0.660499 0.414351
vt 0.981313 0.444072
vt 0.820906 0.444072
vt 0.179276 0.444072
vt 0.018869 0.444072
vt 0.339684 0.444072
vt 0.500091 0.444072
vt 0.660499 0.444072
vt 0.981313 0.490359
vt 0.820906 0.490359
vt 0.179276 0.490359
vt 0.018869 0.490359
vt 0.339684 0.490359
vt 0.500091 0.490359
vt 0.660499 0.490359
vt 0.981313 0.535581
vt 0.820906 0.535581
vt 0.179276 0.535581
vt 0.018869 0.535581
vt 0.339684 0.535581
vt 0.500091 0.535581
vt 0.660499 0.535581
vt 0.981313 0.587389
vt 0.820906 0.587389
vt 0.179276 0.587389
vt 0.018869 0.587389
vt 0.339684 0.587389
vt 0.500091 0.587389
vt 0.660499 0.587389
vt 0.981313 0.600642
vt 0.820906 0.600642
vt 0.179276 0.600642
vt 0.018869 0.600642
vt 0.339684 0.600642
vt 0.500091 0.600642
vt 0.660499 0.600642
vt 0.981230 0.629557
vt 0.820726 0.629557
vt 0.179276 0.629557
vt 0.019321 0.629557
vt 0.339232 0.629557
vt 0.500271 0.629557
vt 0.660498 0.629557
vt 0.229988 0.909555
vt 0.195761 0.942450
vt 0.161573 0.909513
vt 0.430396 0.909685
vt 0.498818 0.909730
vt 0.464586 0.942627
vt 0.363066 0.976928
vt 0.297231 0.976886
vt 0.297268 0.916858
vt 0.363104 0.916899
vt 0.094250 0.976755
vt 0.028419 0.976715
vt 0.028454 0.916691
vt 0.094286 0.916730
vt 0.161610 0.849488
vt 0.230025 0.849529
vt 0.430435 0.849655
vt 0.498857 0.849699
vt 0.161643 0.793333
vt 0.230059 0.793374
vt 0.430471 0.793495
vt 0.498893 0.793539
vt 0.355420 0.718346
vt 0.355463 0.652506
vt 0.430563 0.652555
vt 0.430520 0.718395
vt 0.574086 0.652649
vt 0.574043 0.718489
vt 0.498942 0.718440
vt 0.498985 0.652600
vt 0.161688 0.718241
vt 0.230103 0.718282
vt 0.094326 0.849447
vt 0.094360 0.793293
vt 0.641378 0.652693
vt 0.641335 0.718533
vt 0.566184 0.793583
vt 0.566147 0.849743
vt 0.028495 0.849408
vt 0.028528 0.793254
vt 0.363146 0.849612
vt 0.363181 0.793454
vt 0.288128 0.718302
vt 0.288171 0.652462
vt 0.297345 0.793414
vt 0.297310 0.849571
s 1
usemtl Wood
f 88/1/1 81/2/1 82/3/2 85/4/2
f 92/5/3 1/6/3 86/7/4 89/8/4
f 96/9/5 3/5/5 90/8/6 93/10/6
f 100/11/7 4/9/7 94/10/8 97/12/8
f 104/13/9 5/11/9 98/12/10 101/14/10
f 2/2/11 6/13/11 102/14/12 83/3/12
f 87/4/13 84/3/13 105/15/13 107/16/13
f 91/8/14 7/7/14 108/17/14 109/18/14
f 95/10/15 9/8/15 110/18/15 112/19/15
f 99/12/16 10/10/16 113/19/16 114/20/16
f 103/14/17 11/12/17 115/20/17 116/21/17
f 8/3/18 12/14/18 117/21/18 106/15/18
f 111/22/19 118/23/19 17/24/19 16/25/19
f 13/26/19 18/23/19 15/22/19 14/27/19
f 81/2/1 88/1/1 119/28/20 122/29/20
f 1/6/3 92/5/3 125/30/21 120/31/21
f 3/5/5 96/9/5 128/32/22 126/30/22
f 4/9/7 100/11/7 131/33/23 129/32/23
f 5/11/9 104/13/9 134/34/24 132/33/24
f 6/13/11 2/2/11 123/29/25 135/34/25
f 124/29/26 121/28/26 137/35/26 140/36/26
f 19/31/27 127/30/27 143/37/27 138/38/27
f 21/30/28 130/32/28 146/39/28 144/37/28
f 22/32/29 133/33/29 149/40/29 147/39/29
f 23/33/30 136/34/30 152/41/30 150/40/30
f 24/34/31 20/29/31 141/36/31 153/41/31
f 142/36/32 139/35/32 155/42/32 158/43/32
f 25/38/33 145/37/33 161/44/33 156/45/33
f 27/37/34 148/39/34 164/46/34 162/44/34
f 28/39/35 151/40/35 167/47/35 165/46/35
f 29/40/36 154/41/36 170/48/36 168/47/36
f 30/41/37 26/36/37 159/43/37 171/48/37
f 160/43/38 157/42/38 173/49/39 174/50/39
f 31/45/40 163/44/40 175/51/41 37/52/41
f 33/44/42 166/46/42 176/53/43 39/51/43
f 34/46/44 169/47/44 177/54/45 40/53/45
f 35/47/46 172/48/46 178/55/47 41/54/47
f 36/48/48 32/43/48 38/50/49 42/55/49
f 174/50/39 173/49/39 179/56/50 182/57/50
f 37/52/41 175/51/41 185/58/51 180/59/51
f 39/51/43 176/53/43 188/60/52 186/58/52
f 40/53/45 177/54/45 191/61/53 189/60/53
f 41/54/47 178/55/47 194/62/54 192/61/54
f 42/55/49 38/50/49 183/57/55 195/62/55
f 184/57/56 181/56/56 197/63/57 198/64/57
f 43/59/58 187/58/58 199/65/59 50/66/60
f 45/58/61 190/60/61 200/67/62 51/65/63
f 46/60/64 193/61/64 201/68/65 52/67/65
f 47/61/66 196/62/66 202/69/67 53/68/68
f 48/62/69 44/57/69 49/64/70 54/69/71
f 198/64/57 197/63/57 203/70/72 207/71/72
f 50/66/60 199/65/59 211/72/73 204/73/73
f 51/65/63 200/67/62 213/74/74 212/72/74
f 52/67/65 201/68/65 217/75/75 214/74/75
f 53/68/68 202/69/67 221/76/76 218/75/76
f 54/69/71 49/64/70 208/71/77 222/76/77
f 205/77/78 57/78/78 215/79/78
f 209/80/78 219/81/78 60/82/78
f 210/83/13 206/84/13 223/85/13 227/86/13
f 216/87/16 220/88/16 231/89/16 235/90/16
f 56/77/79 58/79/79 236/91/79 224/92/79
f 59/81/80 55/80/80 228/93/80 232/94/80
f 225/92/79 237/91/79 252/95/79 239/96/79
f 233/94/80 229/93/80 244/97/80 247/98/80
f 243/99/13 240/100/13 255/101/13 257/102/13
f 251/103/16 248/104/16 259/105/16 261/106/16
f 66/96/79 254/95/79 262/107/79 256/108/79
f 68/98/80 65/97/80 258/102/80 260/105/80
f 253/95/79 238/91/79 263/109/79 265/110/79
f 249/104/78 67/103/78 266/111/78 267/112/78
f 234/94/80 250/98/80 268/113/80 269/114/80
f 63/90/19 64/89/19 270/115/19 264/109/19
f 76/109/16 75/115/16 73/116/16 74/110/16
f 245/97/80 230/93/80 271/117/80 273/118/80
f 241/100/78 246/99/78 274/119/78 275/120/78
f 226/92/79 242/96/79 276/121/79 277/122/79
f 61/86/19 62/85/19 278/122/19 272/117/19
f 80/117/13 79/122/13 77/121/13 78/118/13
f 69/102/78 70/101/78 71/106/78 72/105/78
