# Blender 4.3.2
# www.blender.org
mtllib queen.mtl
o Queen
v -0.530791 1.197019 -0.919357
v 0.530791 1.197019 -0.919357
v -1.061582 1.197019 -0.000000
v -0.530791 1.197019 0.919357
v 0.530791 1.197019 0.919357
v 1.061582 1.197019 0.000000
v -0.721249 0.501600 -1.249240
v 0.721249 0.501600 -1.249240
v -1.442498 0.501600 -0.000000
v -0.721249 0.501600 1.249240
v 0.721249 0.501600 1.249240
v 1.442498 0.501600 0.000000
v 0.721249 -0.007107 -1.249240
v -0.721249 -0.007107 -1.249240
v -1.442498 -0.007107 -0.000000
v -0.721249 -0.007107 1.249240
v 0.721249 -0.007107 1.249240
v 1.442498 -0.007107 0.000000
v -0.255432 3.798557 -0.442421
v 0.255432 3.798557 -0.442421
v -0.510864 3.798557 -0.000000
v -0.255432 3.798557 0.442421
v 0.255432 3.798557 0.442421
v 0.510864 3.798557 0.000000
v -0.605849 3.926980 -1.049362
v 0.605849 3.926980 -1.049362
v -1.211698 3.926980 -0.000000
v -0.605849 3.926980 1.049361
v 0.605849 3.926980 1.049362
v 1.211698 3.926980 0.000000
v -0.327159 4.126980 -0.566655
v 0.327159 4.126980 -0.566655
v -0.654317 4.126980 -0.000000
v -0.327159 4.126980 0.566655
v 0.327158 4.126980 0.566655
v 0.654317 4.126980 0.000000
v -0.366042 4.877997 -0.634003
v 0.366042 4.877997 -0.634003
v -0.732084 4.877997 -0.000000
v -0.366042 4.877997 0.634003
v 0.366042 4.877997 0.634003
v 0.732084 4.877997 0.000000
v -0.615721 5.985485 -1.066460
v 0.615721 5.985485 -1.066460
v -1.231442 5.985485 -0.000000
v -0.615721 5.985485 1.066460
v 0.615721 5.985485 1.066460
v 1.231442 5.985485 0.000000
v -0.555128 6.070676 -0.961510
v 0.555128 6.070676 -0.961510
v -1.110256 6.070676 -0.000000
v -0.555128 6.070676 0.961510
v 0.555128 6.070676 0.961510
v 1.110256 6.070676 0.000000
v -0.271199 5.814446 -0.469730
v 0.271199 5.814446 -0.469730
v -0.542398 5.814446 -0.000000
v -0.271199 5.814446 0.469730
v 0.271199 5.814446 0.469730
v 0.542398 5.814446 0.000000
v 0.000000 6.552772 0.000000
v 0.530791 1.197019 -0.919357
v 0.721249 0.501600 -1.249240
v 0.721249 0.501600 -1.249240
v 0.721249 0.501600 -1.249240
v -0.721249 0.501600 -1.249240
v -0.721249 0.501600 -1.249240
v -0.721249 0.501600 -1.249240
v -0.530791 1.197019 -0.919357
v -1.442498 0.501600 -0.000000
v -1.442498 0.501600 -0.000000
v -1.442498 0.501600 -0.000000
v -1.061582 1.197019 -0.000000
v -0.721249 0.501600 1.249240
v -0.721249 0.501600 1.249240
v -0.721249 0.501600 1.249240
v -0.530791 1.197019 0.919357
v 0.721249 0.501600 1.249240
v 0.721249 0.501600 1.249240
v 0.721249 0.501600 1.249240
v 0.530791 1.197019 0.919357
v 1.442498 0.501600 0.000000
v 1.442498 0.501600 0.000000
v 1.442498 0.501600 0.000000
v 1.061582 1.197019 0.000000
v 0.721249 -0.007107 -1.249240
v 0.721249 -0.007107 -1.249240
v -0.721249 -0.007107 -1.249240
v -0.721249 -0.007107 -1.249240
v -1.442498 -0.007107 -0.000000
v -1.442498 -0.007107 -0.000000
v -1.442498 -0.007107 -0.000000
v -0.721249 -0.007107 1.249240
v -0.721249 -0.007107 1.249240
v 0.721249 -0.007107 1.249240
v 0.721249 -0.007107 1.249240
v 1.442498 -0.007107 0.000000
v 1.442498 -0.007107 0.000000
v 1.442498 -0.007107 0.000000
v -0.255432 3.798557 -0.442421
v -0.255432 3.798557 -0.442421
v -0.255432 3.798557 -0.442421
v 0.255432 3.798557 -0.442421
v 0.255432 3.798557 -0.442421
v 0.255432 3.798557 -0.442421
v -0.510864 3.798557 -0.000000
v -0.510864 3.798557 -0.000000
v -0.510864 3.798557 -0.000000
v -0.255432 3.798557 0.442421
v -0.255432 3.798557 0.442421
v -0.255432 3.798557 0.442421
v 0.255432 3.798557 0.442421
v 0.255432 3.798557 0.442421
v 0.255432 3.798557 0.442421
v 0.510864 3.798557 0.000000
v 0.510864 3.798557 0.000000
v 0.510864 3.798557 0.000000
v -0.605849 3.926980 -1.049362
v -0.605849 3.926980 -1.049362
v -0.605849 3.926980 -1.049362
v 0.605849 3.926980 -1.049362
v 0.605849 3.926980 -1.049362
v 0.605849 3.926980 -1.049362
v -1.211698 3.926980 -0.000000
v -1.211698 3.926980 -0.000000
v -1.211698 3.926980 -0.000000
v -0.605849 3.926980 1.049361
v -0.605849 3.926980 1.049361
v -0.605849 3.926980 1.049361
v 0.605849 3.926980 1.049362
v 0.605849 3.926980 1.049362
v 0.605849 3.926980 1.049362
v 1.211698 3.926980 0.000000
v 1.211698 3.926980 0.000000
v 1.211698 3.926980 0.000000
v -0.327159 4.126980 -0.566655
v -0.327159 4.126980 -0.566655
v -0.327159 4.126980 -0.566655
v 0.327159 4.126980 -0.566655
v 0.327159 4.126980 -0.566655
v 0.327159 4.126980 -0.566655
v -0.654317 4.126980 -0.000000
v -0.654317 4.126980 -0.000000
v -0.654317 4.126980 -0.000000
v -0.327159 4.126980 0.566655
v -0.327159 4.126980 0.566655
v -0.327159 4.126980 0.566655
v 0.327158 4.126980 0.566655
v 0.327158 4.126980 0.566655
v 0.327158 4.126980 0.566655
v 0.654317 4.126980 0.000000
v 0.654317 4.126980 0.000000
v 0.654317 4.126980 0.000000
v -0.366042 4.877997 -0.634003
v 0.366042 4.877997 -0.634003
v -0.732084 4.877997 -0.000000
v -0.366042 4.877997 0.634003
v 0.366042 4.877997 0.634003
v 0.732084 4.877997 0.000000
v -0.615721 5.985485 -1.066460
v -0.615721 5.985485 -1.066460
v -0.615721 5.985485 -1.066460
v 0.615721 5.985485 -1.066460
v 0.615721 5.985485 -1.066460
v 0.615721 5.985485 -1.066460
v -1.231442 5.985485 -0.000000
v -1.231442 5.985485 -0.000000
v -1.231442 5.985485 -0.000000
v -0.615721 5.985485 1.066460
v -0.615721 5.985485 1.066460
v -0.615721 5.985485 1.066460
v 0.615721 5.985485 1.066460
v 0.615721 5.985485 1.066460
v 0.615721 5.985485 1.066460
v 1.231442 5.985485 0.000000
v 1.231442 5.985485 0.000000
v 1.231442 5.985485 0.000000
v -0.555128 6.070676 -0.961510
v -0.555128 6.070676 -0.961510
v -0.555128 6.070676 -0.961510
v 0.555128 6.070676 -0.961510
v 0.555128 6.070676 -0.961510
v 0.555128 6.070676 -0.961510
v -1.110256 6.070676 -0.000000
v -1.110256 6.070676 -0.000000
v -1.110256 6.070676 -0.000000
v -0.555128 6.070676 0.961510
v -0.555128 6.070676 0.961510
v -0.555128 6.070676 0.961510
v 0.555128 6.070676 0.961510
v 0.555128 6.070676 0.961510
v 0.555128 6.070676 0.961510
v 1.110256 6.070676 0.000000
v 1.110256 6.070676 0.000000
v 1.110256 6.070676 0.000000
v -0.271199 5.814446 -0.469730
v -0.271199 5.814446 -0.469730
v -0.271199 5.814446 -0.469730
v 0.271199 5.814446 -0.469730
v 0.271199 5.814446 -0.469730
v 0.271199 5.814446 -0.469730
v -0.542398 5.814446 -0.000000
v -0.542398 5.814446 -0.000000
v -0.542398 5.814446 -0.000000
v -0.271199 5.814446 0.469730
v -0.271199 5.814446 0.469730
v -0.271199 5.814446 0.469730
v 0.271199 5.814446 0.469730
v 0.271199 5.814446 0.469730
v 0.271199 5.814446 0.469730
v 0.542398 5.814446 0.000000
v 0.542398 5.814446 0.000000
v 0.542398 5.814446 0.000000
v 0.000000 6.552772 0.000000
v 0.000000 6.552772 0.000000
v 0.000000 6.552772 0.000000
v 0.000000 6.552772 0.000000
v 0.000000 6.552772 0.000000
vn -0.0000 0.3203 -0.9473
vn -0.0000 0.4286 -0.9035
vn -0.8204 0.3203 -0.4737
vn -0.7825 0.4286 -0.4518
vn -0.8204 0.3203 0.4737
vn -0.7825 0.4286 0.4517
vn -0.0000 0.3203 0.9473
vn -0.0000 0.4286 0.9035
vn 0.8204 0.3203 0.4737
vn 0.7825 0.4286 0.4517
vn 0.8204 0.3203 -0.4737
vn 0.7825 0.4286 -0.4517
vn -0.0000 -0.0000 -1.0000
vn -0.8660 -0.0000 -0.5000
vn -0.8660 -0.0000 0.5000
vn -0.0000 -0.0000 1.0000
vn 0.8660 -0.0000 0.5000
vn 0.8660 -0.0000 -0.5000
vn -0.0000 -1.0000 -0.0000
vn -0.0000 0.1803 -0.9836
vn -0.8518 0.1803 -0.4918
vn -0.8518 0.1803 0.4918
vn -0.0000 0.1803 0.9836
vn 0.8518 0.1803 0.4918
vn 0.8518 0.1803 -0.4918
vn -0.0000 -0.9783 -0.2070
vn -0.1793 -0.9783 -0.1035
vn -0.1793 -0.9783 0.1035
vn -0.0000 -0.9783 0.2070
vn 0.1793 -0.9783 0.1035
vn 0.1793 -0.9783 -0.1035
vn -0.0000 0.9238 -0.3828
vn -0.3315 0.9238 -0.1914
vn -0.3315 0.9238 0.1914
vn -0.0000 0.9238 0.3828
vn 0.3315 0.9238 0.1914
vn 0.3315 0.9238 -0.1914
vn -0.0000 -0.0893 -0.9960
vn -0.0000 -0.2397 -0.9709
vn -0.8626 -0.0893 -0.4980
vn -0.8408 -0.2397 -0.4854
vn -0.8626 -0.0893 0.4980
vn -0.8408 -0.2397 0.4854
vn -0.0000 -0.0893 0.9960
vn -0.0000 -0.2397 0.9709
vn 0.8626 -0.0893 0.4980
vn 0.8408 -0.2397 0.4854
vn 0.8626 -0.0893 -0.4980
vn 0.8408 -0.2397 -0.4854
vn -0.0000 -0.3637 -0.9315
vn -0.8067 -0.3637 -0.4658
vn -0.8067 -0.3637 0.4658
vn -0.0000 -0.3637 0.9315
vn 0.8067 -0.3637 0.4658
vn 0.8067 -0.3637 -0.4658
vn -0.0000 0.7764 -0.6302
vn -0.5458 0.7764 -0.3151
vn -0.5458 0.7764 0.3151
vn -0.0000 0.7764 0.6302
vn 0.5458 0.7764 0.3151
vn 0.5458 0.7764 -0.3151
vn -0.0000 0.8868 0.4621
vn 0.4002 0.8868 0.2310
vn 0.4002 0.8868 -0.2310
vn -0.0000 0.8868 -0.4621
vn -0.4002 0.8868 -0.2310
vn -0.4002 0.8868 0.2310
vn -0.0000 0.5368 -0.8437
vn -0.7307 0.5368 -0.4219
vn -0.7307 0.5368 0.4219
vn -0.0000 0.5368 0.8437
vn 0.7307 0.5368 0.4219
vn 0.7307 0.5368 -0.4219
vt 0.986907 0.383955
vt 0.824382 0.383955
vt 0.824382 0.315551
vt 0.986907 0.315551
vt 0.174284 0.383955
vt 0.011760 0.383955
vt 0.011760 0.315551
vt 0.174284 0.315551
vt 0.336809 0.383955
vt 0.336809 0.315551
vt 0.499333 0.383955
vt 0.499333 0.315551
vt 0.661858 0.383955
vt 0.661858 0.315551
vt 0.824382 0.265513
vt 0.986907 0.265513
vt 0.011760 0.265513
vt 0.174284 0.265513
vt 0.336809 0.265513
vt 0.499333 0.265513
vt 0.661858 0.265513
vt 0.714136 0.133363
vt 0.987659 0.133363
vt 0.919279 0.251802
vt 0.782517 0.251802
vt 0.919279 0.014924
vt 0.782517 0.014924
vt 0.986907 0.639852
vt 0.824382 0.639852
vt 0.174284 0.639852
vt 0.011760 0.639852
vt 0.336809 0.639852
vt 0.499333 0.639852
vt 0.661858 0.639852
vt 0.986907 0.708972
vt 0.824382 0.708972
vt 0.174284 0.708972
vt 0.011760 0.708972
vt 0.336809 0.708972
vt 0.499333 0.708972
vt 0.661858 0.708972
vt 0.986907 0.777063
vt 0.824382 0.777063
vt 0.174284 0.777063
vt 0.011760 0.777063
vt 0.336809 0.777063
vt 0.499333 0.777063
vt 0.661858 0.777063
vt 0.986907 0.850935
vt 0.824382 0.850935
vt 0.174284 0.850935
vt 0.011760 0.850935
vt 0.336809 0.850935
vt 0.499333 0.850935
vt 0.661858 0.850935
vt 0.986907 0.959872
vt 0.824382 0.959872
vt 0.174284 0.959872
vt 0.011760 0.959872
vt 0.336809 0.959872
vt 0.499333 0.959872
vt 0.661858 0.959872
vt 0.986907 0.983746
vt 0.824382 0.983746
vt 0.174284 0.983746
vt 0.011760 0.983746
vt 0.336809 0.983746
vt 0.499333 0.983746
vt 0.661858 0.983746
vt 0.228746 0.246704
vt 0.095497 0.246704
vt 0.134504 0.178382
vt 0.192570 0.179345
vt 0.014603 0.127178
vt 0.104185 0.128633
vt 0.099294 0.009813
vt 0.136349 0.079880
vt 0.234124 0.013808
vt 0.194838 0.081231
vt 0.309743 0.132703
vt 0.224466 0.131760
vt 0.164485 0.129872
s 1
usemtl Wood
f 69/1/1 62/2/1 63/3/2 66/4/2
f 73/5/3 1/6/3 67/7/4 70/8/4
f 77/9/5 3/5/5 71/8/6 74/10/6
f 81/11/7 4/9/7 75/10/8 78/12/8
f 85/13/9 5/11/9 79/12/10 82/14/10
f 2/2/11 6/13/11 83/14/12 64/3/12
f 68/4/13 65/3/13 86/15/13 88/16/13
f 72/8/14 7/7/14 89/17/14 90/18/14
f 76/10/15 9/8/15 91/18/15 93/19/15
f 80/12/16 10/10/16 94/19/16 95/20/16
f 84/14/17 11/12/17 96/20/17 97/21/17
f 8/3/18 12/14/18 98/21/18 87/15/18
f 92/22/19 99/23/19 17/24/19 16/25/19
f 13/26/19 18/23/19 15/22/19 14/27/19
f 62/2/1 69/1/1 100/28/20 103/29/20
f 1/6/3 73/5/3 106/30/21 101/31/21
f 3/5/5 77/9/5 109/32/22 107/30/22
f 4/9/7 81/11/7 112/33/23 110/32/23
f 5/11/9 85/13/9 115/34/24 113/33/24
f 6/13/11 2/2/11 104/29/25 116/34/25
f 105/29/26 102/28/26 118/35/26 121/36/26
f 19/31/27 108/30/27 124/37/27 119/38/27
f 21/30/28 111/32/28 127/39/28 125/37/28
f 22/32/29 114/33/29 130/40/29 128/39/29
f 23/33/30 117/34/30 133/41/30 131/40/30
f 24/34/31 20/29/31 122/36/31 134/41/31
f 123/36/32 120/35/32 136/42/32 139/43/32
f 25/38/33 126/37/33 142/44/33 137/45/33
f 27/37/34 129/39/34 145/46/34 143/44/34
f 28/39/35 132/40/35 148/47/35 146/46/35
f 29/40/36 135/41/36 151/48/36 149/47/36
f 30/41/37 26/36/37 140/43/37 152/48/37
f 141/43/38 138/42/38 154/49/39 155/50/39
f 31/45/40 144/44/40 156/51/41 37/52/41
f 33/44/42 147/46/42 157/53/43 39/51/43
f 34/46/44 150/47/44 158/54/45 40/53/45
f 35/47/46 153/48/46 159/55/47 41/54/47
f 36/48/48 32/43/48 38/50/49 42/55/49
f 155/50/39 154/49/39 160/56/50 163/57/50
f 37/52/41 156/51/41 166/58/51 161/59/51
f 39/51/43 157/53/43 169/60/52 167/58/52
f 40/53/45 158/54/45 172/61/53 170/60/53
f 41/54/47 159/55/47 175/62/54 173/61/54
f 42/55/49 38/50/49 164/57/55 176/62/55
f 165/57/56 162/56/56 178/63/56 181/64/56
f 43/59/57 168/58/57 184/65/57 179/66/57
f 45/58/58 171/60/58 187/67/58 185/65/58
f 46/60/59 174/61/59 190/68/59 188/67/59
f 47/61/60 177/62/60 193/69/60 191/68/60
f 48/62/61 44/57/61 182/64/61 194/69/61
f 183/70/62 180/71/62 196/72/62 199/73/62
f 49/71/63 186/74/63 202/75/63 197/72/63
f 51/74/64 189/76/64 205/77/64 203/75/64
f 52/76/65 192/78/65 208/79/65 206/77/65
f 53/78/66 195/80/66 211/81/66 209/79/66
f 54/80/67 50/70/67 200/73/67 212/81/67
f 201/73/68 198/72/68 218/82/68
f 55/72/69 204/75/69 217/82/69
f 57/75/70 207/77/70 216/82/70
f 58/77/71 210/79/71 214/82/71
f 59/79/72 213/81/72 215/82/72
f 60/81/73 56/73/73 61/82/73
