# Blender 4.3.2
# www.blender.org
mtllib rook.mtl
o Rook
v -0.530791 1.197019 -0.919357
v 0.530791 1.197019 -0.919357
v -1.061582 1.197019 -0.000000
v -0.530791 1.197019 0.919357
v 0.530791 1.197019 0.919357
v 1.061582 1.197019 0.000000
v -0.721249 0.501600 -1.249240
v 0.721249 0.501600 -1.249240
v -1.442498 0.501600 -0.000000
v -0.721249 0.501600 1.249240
v 0.721249 0.501600 1.249240
v 1.442498 0.501600 0.000000
v 0.721249 -0.007107 -1.249240
v -0.721249 -0.007107 -1.249240
v -1.442498 -0.007107 -0.000000
v -0.721249 -0.007107 1.249240
v 0.721249 -0.007107 1.249240
v 1.442498 -0.007107 0.000000
v -0.425720 4.570090 -0.737369
v 0.425720 4.570090 -0.737369
v -0.851440 4.570090 -0.000000
v -0.425720 4.570090 0.737369
v 0.425720 4.570090 0.737369
v 0.851440 4.570090 0.000000
v -0.605849 4.698514 -1.049362
v 0.605849 4.698514 -1.049362
v -1.211698 4.698514 -0.000000
v -0.605849 4.698514 1.049361
v 0.605849 4.698514 1.049362
v 1.211698 4.698514 0.000000
v -0.605849 5.058514 -1.049362
v 0.605849 5.058514 -1.049362
v -1.211698 5.058514 -0.000000
v -0.605849 5.058514 1.049361
v 0.605849 5.058514 1.049362
v 1.211698 5.058514 0.000000
v 0.605849 5.508513 -1.049362
v -0.605849 5.508513 -1.049362
v -1.211698 5.508513 -0.000000
v -0.605849 5.508513 1.049361
v 0.605849 5.508513 1.049362
v 1.211698 5.508513 0.000000
v -0.424094 5.508513 -0.734553
v -0.848189 5.508513 -0.000000
v -0.424094 5.508513 0.734553
v 0.424094 5.508513 0.734553
v 0.424094 5.508513 -0.734553
v 0.848189 5.508513 0.000000
v -0.424094 5.058514 -0.734553
v -0.848189 5.058514 -0.000000
v 0.424094 5.058514 0.734553
v -0.424094 5.058514 0.734553
v 0.848189 5.058514 0.000000
v 0.424094 5.058514 -0.734553
v 0.530791 1.197019 -0.919357
v 0.721249 0.501600 -1.249240
v 0.721249 0.501600 -1.249240
v 0.721249 0.501600 -1.249240
v -0.721249 0.501600 -1.249240
v -0.721249 0.501600 -1.249240
v -0.721249 0.501600 -1.249240
v -0.530791 1.197019 -0.919357
v -1.442498 0.501600 -0.000000
v -1.442498 0.501600 -0.000000
v -1.442498 0.501600 -0.000000
v -1.061582 1.197019 -0.000000
v -0.721249 0.501600 1.249240
v -0.721249 0.501600 1.249240
v -0.721249 0.501600 1.249240
v -0.530791 1.197019 0.919357
v 0.721249 0.501600 1.249240
v 0.721249 0.501600 1.249240
v 0.721249 0.501600 1.249240
v 0.530791 1.197019 0.919357
v 1.442498 0.501600 0.000000
v 1.442498 0.501600 0.000000
v 1.442498 0.501600 0.000000
v 1.061582 1.197019 0.000000
v 0.721249 -0.007107 -1.249240
v 0.721249 -0.007107 -1.249240
v -0.721249 -0.007107 -1.249240
v -0.721249 -0.007107 -1.249240
v -1.442498 -0.007107 -0.000000
v -1.442498 -0.007107 -0.000000
v -0.721249 -0.007107 1.249240
v -0.721249 -0.007107 1.249240
v 0.721249 -0.007107 1.249240
v 0.721249 -0.007107 1.249240
v 1.442498 -0.007107 0.000000
v 1.442498 -0.007107 0.000000
v -0.425720 4.570090 -0.737369
v -0.425720 4.570090 -0.737369
v -0.425720 4.570090 -0.737369
v 0.425720 4.570090 -0.737369
v 0.425720 4.570090 -0.737369
v 0.425720 4.570090 -0.737369
v -0.851440 4.570090 -0.000000
v -0.851440 4.570090 -0.000000
v -0.851440 4.570090 -0.000000
v -0.425720 4.570090 0.737369
v -0.425720 4.570090 0.737369
v -0.425720 4.570090 0.737369
v 0.425720 4.570090 0.737369
v 0.425720 4.570090 0.737369
v 0.425720 4.570090 0.737369
v 0.851440 4.570090 0.000000
v 0.851440 4.570090 0.000000
v 0.851440 4.570090 0.000000
v -0.605849 4.698514 -1.049362
v -0.605849 4.698514 -1.049362
v -0.605849 4.698514 -1.049362
v 0.605849 4.698514 -1.049362
v 0.605849 4.698514 -1.049362
v 0.605849 4.698514 -1.049362
v -1.211698 4.698514 -0.000000
v -1.211698 4.698514 -0.000000
v -1.211698 4.698514 -0.000000
v -0.605849 4.698514 1.049361
v -0.605849 4.698514 1.049361
v -0.605849 4.698514 1.049361
v 0.605849 4.698514 1.049362
v 0.605849 4.698514 1.049362
v 0.605849 4.698514 1.049362
v 1.211698 4.698514 0.000000
v 1.211698 4.698514 0.000000
v 1.211698 4.698514 0.000000
v -0.605849 5.058514 -1.049362
v -0.605849 5.058514 -1.049362
v -0.605849 5.058514 -1.049362
v 0.605849 5.058514 -1.049362
v 0.605849 5.058514 -1.049362
v 0.605849 5.058514 -1.049362
v -1.211698 5.058514 -0.000000
v -1.211698 5.058514 -0.000000
v -1.211698 5.058514 -0.000000
v -0.605849 5.058514 1.049361
v -0.605849 5.058514 1.049361
v -0.605849 5.058514 1.049361
v 0.605849 5.058514 1.049362
v 0.605849 5.058514 1.049362
v 0.605849 5.058514 1.049362
v 1.211698 5.058514 0.000000
v 1.211698 5.058514 0.000000
v 1.211698 5.058514 0.000000
v -0.605849 5.508513 -1.049362
v -0.605849 5.508513 -1.049362
v 0.605849 5.508513 -1.049362
v 0.605849 5.508513 -1.049362
v -1.211698 5.508513 -0.000000
v -1.211698 5.508513 -0.000000
v -0.605849 5.508513 1.049361
v -0.605849 5.508513 1.049361
v 0.605849 5.508513 1.049362
v 0.605849 5.508513 1.049362
v 1.211698 5.508513 0.000000
v 1.211698 5.508513 0.000000
v -0.848189 5.508513 -0.000000
v -0.848189 5.508513 -0.000000
v -0.424094 5.508513 -0.734553
v -0.424094 5.508513 -0.734553
v 0.424094 5.508513 0.734553
v 0.424094 5.508513 0.734553
v -0.424094 5.508513 0.734553
v -0.424094 5.508513 0.734553
v 0.424094 5.508513 -0.734553
v 0.424094 5.508513 -0.734553
v 0.848189 5.508513 0.000000
v 0.848189 5.508513 0.000000
v -0.848189 5.058514 -0.000000
v -0.848189 5.058514 -0.000000
v -0.848189 5.058514 -0.000000
v -0.424094 5.058514 -0.734553
v -0.424094 5.058514 -0.734553
v -0.424094 5.058514 -0.734553
v 0.424094 5.058514 0.734553
v 0.424094 5.058514 0.734553
v 0.424094 5.058514 0.734553
v -0.424094 5.058514 0.734553
v -0.424094 5.058514 0.734553
v -0.424094 5.058514 0.734553
v 0.424094 5.058514 -0.734553
v 0.424094 5.058514 -0.734553
v 0.424094 5.058514 -0.734553
v 0.848189 5.058514 0.000000
v 0.848189 5.058514 0.000000
v 0.848189 5.058514 0.000000
vn -0.0000 0.2614 -0.9652
vn -0.0000 0.4286 -0.9035
vn -0.8359 0.2614 -0.4826
vn -0.7825 0.4286 -0.4518
vn -0.8359 0.2614 0.4826
vn -0.7825 0.4286 0.4517
vn -0.0000 0.2614 0.9652
vn -0.0000 0.4286 0.9035
vn 0.8359 0.2614 0.4826
vn 0.7825 0.4286 0.4517
vn 0.8359 0.2614 -0.4826
vn 0.7825 0.4286 -0.4517
vn -0.0000 -0.0000 -1.0000
vn -0.8660 -0.0000 -0.5000
vn -0.8660 -0.0000 0.5000
vn -0.0000 -0.0000 1.0000
vn 0.8660 -0.0000 0.5000
vn 0.8660 -0.0000 -0.5000
vn -0.0000 -1.0000 -0.0000
vn -0.0000 0.0539 -0.9985
vn -0.8648 0.0539 -0.4993
vn -0.8648 0.0539 0.4993
vn -0.0000 0.0539 0.9985
vn 0.8648 0.0539 0.4993
vn 0.8648 0.0539 -0.4993
vn -0.0000 -0.9247 -0.3806
vn -0.3296 -0.9247 -0.1903
vn -0.3296 -0.9247 0.1903
vn -0.0000 -0.9247 0.3806
vn 0.3296 -0.9247 0.1903
vn 0.3296 -0.9247 -0.1903
vn -0.0000 1.0000 -0.0000
vt 0.987411 0.133166
vt 0.826052 0.133166
vt 0.826052 0.064567
vt 0.987411 0.064567
vt 0.180615 0.133166
vt 0.019255 0.133166
vt 0.019255 0.064567
vt 0.180615 0.064567
vt 0.341974 0.133166
vt 0.341974 0.064567
vt 0.503333 0.133166
vt 0.503333 0.064567
vt 0.664693 0.133166
vt 0.664693 0.064567
vt 0.826052 0.014387
vt 0.987411 0.014387
vt 0.019255 0.014387
vt 0.180615 0.014387
vt 0.341974 0.014387
vt 0.503333 0.014387
vt 0.664693 0.014387
vt 0.586323 0.740637
vt 0.978677 0.740637
vt 0.880589 0.910532
vt 0.684411 0.910532
vt 0.880589 0.570743
vt 0.684411 0.570743
vt 0.987411 0.465897
vt 0.826052 0.465897
vt 0.180615 0.465897
vt 0.019255 0.465897
vt 0.341974 0.465897
vt 0.503333 0.465897
vt 0.664693 0.465897
vt 0.987411 0.542684
vt 0.826052 0.542684
vt 0.180615 0.542684
vt 0.019255 0.542684
vt 0.341974 0.542684
vt 0.503333 0.542684
vt 0.664693 0.542684
vt 0.312627 0.675827
vt 0.219675 0.675311
vt 0.206227 0.650685
vt 0.326239 0.651471
vt 0.170550 0.756735
vt 0.140843 0.758292
vt 0.219632 0.833236
vt 0.207279 0.855888
vt 0.310074 0.833108
vt 0.322325 0.855888
vt 0.359720 0.757161
vt 0.389364 0.759154
vt 0.090356 0.733955
vt 0.165006 0.622961
vt 0.322325 0.898614
vt 0.207279 0.898614
vt 0.367523 0.624599
vt 0.439879 0.735765
vt 0.072717 0.697911
vt 0.124972 0.620216
vt 0.305068 0.928503
vt 0.224536 0.928504
vt 0.407259 0.622476
vt 0.457907 0.700292
vt 0.031496 0.670188
vt 0.083751 0.592492
vt 0.305068 0.971229
vt 0.224536 0.971229
vt 0.448543 0.595604
vt 0.499192 0.673421
vt 0.520899 0.706770
vt 0.479614 0.733642
vt 0.339582 0.971229
vt 0.339582 0.928503
vt 0.404440 0.791081
vt 0.357513 0.858795
vt 0.009101 0.703486
vt 0.050322 0.731209
vt 0.190023 0.971229
vt 0.190022 0.928504
vt 0.171958 0.858509
vt 0.125452 0.790192
vt 0.224433 0.619623
vt 0.308441 0.620173
vt 0.447670 0.974444
vt 0.386326 0.868192
vt 0.631703 0.868192
vt 0.570359 0.974444
vt 0.570359 0.761941
vt 0.447670 0.761941
vt 0.106146 0.559194
vt 0.147367 0.586918
vt 0.426837 0.562255
vt 0.385552 0.589126
s 1
usemtl Wood
f 62/1/1 55/2/1 56/3/2 59/4/2
f 66/5/3 1/6/3 60/7/4 63/8/4
f 70/9/5 3/5/5 64/8/6 67/10/6
f 74/11/7 4/9/7 68/10/8 71/12/8
f 78/13/9 5/11/9 72/12/10 75/14/10
f 2/2/11 6/13/11 76/14/12 57/3/12
f 61/4/13 58/3/13 79/15/13 81/16/13
f 65/8/14 7/7/14 82/17/14 83/18/14
f 69/10/15 9/8/15 84/18/15 85/19/15
f 73/12/16 10/10/16 86/19/16 87/20/16
f 77/14/17 11/12/17 88/20/17 89/21/17
f 8/3/18 12/14/18 90/21/18 80/15/18
f 15/22/19 18/23/19 17/24/19 16/25/19
f 13/26/19 18/23/19 15/22/19 14/27/19
f 55/2/1 62/1/1 91/28/20 94/29/20
f 1/6/3 66/5/3 97/30/21 92/31/21
f 3/5/5 70/9/5 100/32/22 98/30/22
f 4/9/7 74/11/7 103/33/23 101/32/23
f 5/11/9 78/13/9 106/34/24 104/33/24
f 6/13/11 2/2/11 95/29/25 107/34/25
f 96/29/26 93/28/26 109/35/26 112/36/26
f 19/31/27 99/30/27 115/37/27 110/38/27
f 21/30/28 102/32/28 118/39/28 116/37/28
f 22/32/29 105/33/29 121/40/29 119/39/29
f 23/33/30 108/34/30 124/41/30 122/40/30
f 24/34/31 20/29/31 113/36/31 125/41/31
f 114/42/13 111/43/13 127/44/13 130/45/13
f 25/43/14 117/46/14 133/47/14 128/44/14
f 27/46/15 120/48/15 136/49/15 134/47/15
f 28/48/16 123/50/16 139/51/16 137/49/16
f 29/50/17 126/52/17 142/53/17 140/51/17
f 30/52/18 26/42/18 131/45/18 143/53/18
f 128/44/14 133/47/14 149/54/14 145/55/14
f 137/49/16 139/51/16 153/56/16 151/57/16
f 143/53/18 131/45/18 147/58/18 155/59/18
f 146/55/32 150/54/32 157/60/32 159/61/32
f 152/57/32 154/56/32 161/62/32 163/63/32
f 156/59/32 148/58/32 165/64/32 167/65/32
f 160/61/17 158/60/17 169/66/17 172/67/17
f 164/63/13 162/62/13 175/68/13 178/69/13
f 168/65/15 166/64/15 181/70/15 184/71/15
f 144/72/16 42/73/16 48/65/16 185/71/16
f 141/74/18 176/68/18 46/62/18 41/75/18
f 35/51/32 36/53/32 186/76/32 177/77/32
f 135/78/16 170/66/16 44/60/16 39/79/16
f 138/80/14 40/81/14 45/63/14 179/69/14
f 33/47/32 34/49/32 180/82/32 171/83/32
f 129/44/32 173/84/32 182/85/32 132/45/32
f 49/86/32 50/87/32 53/88/32 54/89/32
f 51/90/32 53/88/32 50/87/32 52/91/32
f 31/92/18 38/93/18 43/61/18 174/67/18
f 32/94/14 183/70/14 47/64/14 37/95/14
